PathFileType	4	(X/Y/Z)	pose_F01_0-84.trc
DataRate	CameraRate	NumFrames	NumMarkers	Units	OrigDataRate	OrigDataStartFrame	OrigNumFrames
30	30	8	21	m	30	21	84
Frame#	Time	CHip			RHip			RKnee			RAnkle			RBigToe			RSmallToe			RHeel			LHip			LKnee			LAnkle			LBigToe			LSmallToe			LHeel			Neck			Nose			RShoulder			RElbow			RWrist			LShoulder			LElbow			LWrist			
		X1	Y1	Z1	X2	Y2	Z2	X3	Y3	Z3	X4	Y4	Z4	X5	Y5	Z5	X6	Y6	Z6	X7	Y7	Z7	X8	Y8	Z8	X9	Y9	Z9	X10	Y10	Z10	X11	Y11	Z11	X12	Y12	Z12	X13	Y13	Z13	X14	Y14	Z14	X15	Y15	Z15	X16	Y16	Z16	X17	Y17	Z17	X18	Y18	Z18	X19	Y19	Z19	X20	Y20	Z20	X21	Y21	Z21	
21	0.7	-0.1837200115207717	1.8374466965274208	-0.7078835917096964	-0.20186679565683693	1.8354459054747558	-0.6392264165062291	-0.23037634982479788	1.7032126167157364	-0.5814496640256672	-0.2538678217499682	1.5738749681592101	-0.5297864299077475	-0.2659967211187775	1.5397278797705396	-0.5140487073809481	-0.268050769449567	1.5475764344700966	-0.48161296791238306	-0.25126446823489773	1.5651876479868985	-0.5447793306863381	-0.16713569544332513	1.838135768214193	-0.777020719248155	-0.1610962206050903	1.7046104306033216	-0.7698262470202548	-0.2675771553543232	1.490481990077492	-1.2752437651012585	-0.2835175876149481	1.4754762288876915	-1.1647932162532757	-0.26663530128390434	1.4747334126147387	-1.2070539943057268	-0.25973456394632194	1.470968696742749	-1.3073512430871566	-0.18255759337018868	1.9983629909207847	-0.7242231730777773	-0.2089405712452525	2.065966790471545	-0.6924625819239284	-0.2035115114989301	1.9900686029296237	-0.6257939298315807	-0.21009259105772296	1.904580180732084	-0.5881433699888171	-1.4278390152820406	1.8544810601145731	0.6302947930794996	-0.15750239839091842	2.0070179592357813	-0.8273746344837729	-0.13781216988717007	1.927743166944019	-0.8829868409138012	-0.19253463792629777	1.9483466928975586	-0.780381381406945
22	0.7333333333333333	-0.18072658487110715	1.8364215160212012	-0.7188348788240281	-0.1961166309102098	1.8344243979619366	-0.649346555014836	-0.21787428932607075	1.7001395075312655	-0.6156012116158527	-0.22426716426482599	1.5768864388869135	-0.60017349073648	-0.24190660819214824	1.542651475728543	-0.5657320879050577	-0.24157847370107696	1.5489383149347182	-0.5403058200047203	-0.2195921178799903	1.568020434917248	-0.6167851677880647	-0.15855780895424113	1.8397563909484627	-0.7897398109420745	-0.15734270289094934	1.7018926462855408	-0.7773543132290447	-0.2674821955350892	1.4892125870587885	-1.2757100970698456	-0.28546758479512596	1.4739996374755373	-1.1711681510995995	-0.26902836532831825	1.4750250559752032	-1.203379508624376	-0.25937467210380616	1.471792426498012	-1.307645354932432	-0.175925858967855	2.000372018905148	-0.7426063271812076	-0.20301931906475407	2.0684837566084284	-0.7016565679787672	-0.1921437697175785	1.9958431738159674	-0.6460351457132726	-0.19477356562565706	1.907153465515194	-0.604383097264199	-1.464119606373192	1.8610064520179936	0.687638616311752	-0.1511689818403617	2.006949235012463	-0.837039795293433	-0.13779537348550053	1.9238941519108823	-0.8824060069172144	-0.1928192546180239	1.9529654427700398	-0.7724589288321446
23	0.7666666666666667	-0.1744196395935373	1.8378869346998965	-0.7292654164293367	-0.1901247055965237	1.8347006442448925	-0.6596430045387218	-0.20084665133133311	1.700401507420356	-0.6418145795121851	-0.1932269648336669	1.57659595910498	-0.6362327146557708	-0.22328180254189303	1.5418395198329582	-0.5889773837023206	-0.21855648809187533	1.5492961029606076	-0.5686332113050722	-0.1866801513700567	1.5659458160417072	-0.6583628272245651	-0.15461370026053164	1.838744705553074	-0.7973219933395121	-0.1517074007319783	1.7037897195745397	-0.7910628115720106	-0.14395460990818013	1.562963104751768	-0.7907430235386466	-0.28430037304031947	1.4774732273239022	-1.167855231221445	-0.26899487575857045	1.476792633298808	-1.2031432021101476	-0.2592415514995278	1.4741242383465836	-1.307137861285009	-0.17015261102431495	1.9991632781061002	-0.7526036345105663	-0.1968353181341927	2.0678881859751437	-0.7191164128493566	-0.1875157033388251	1.9949647585103678	-0.6591621300770673	-0.1876963609525927	1.9078036040599522	-0.6081740225850742	-1.4814492984036396	1.8578740324474374	0.7115652091696261	-0.1441955950329556	2.0030512660562176	-0.8436060665101219	-0.13864793512897428	1.9184938034285166	-0.8848535282332111	-0.1864130265261518	1.9502192267246532	-0.7702963092216282
24	0.8	-0.16661255559371127	1.8371955686547308	-0.7413728006349648	-0.18049401762065734	1.8341711981638866	-0.6739278010423806	-0.1886163940854309	1.6998904414316662	-0.6462348197605164	-0.18003130876791645	1.5747262405050964	-0.6447171291419581	-0.2142152488457271	1.5395904642317546	-0.5931769008682236	-0.20781053773689964	1.5463553377460995	-0.5745596329325178	-0.17356956365903217	1.5647968508182324	-0.6668523965484314	-0.15005944974981833	1.8376901630249067	-0.8020083702499236	-0.14399355093825156	1.7053816536119812	-0.7950569919529115	-0.2665296555093801	1.4926467222907012	-1.2730378814628056	-0.28540248603503277	1.4775350607888247	-1.1719983073911602	-0.2715141440183253	1.4776956561359125	-1.2003146566738399	-0.2605269660979289	1.4760764053956845	-1.3000589978095483	-0.16122328633483013	1.9981013913195547	-0.7615341191042153	-0.19107525405197442	2.0669889394273016	-0.7290892966317799	-0.18176803997359411	1.995348230732361	-0.6692107289754068	-0.18838544840543245	1.9089745872014063	-0.6115553841701157	-0.20549936879894845	1.9533240803702234	-0.6233823526651314	-0.1403623422710187	2.002484297233609	-0.8511868403829616	-0.13819599438510077	1.9142311485337062	-0.8814817936253497	-0.1920588735849632	1.9456702004581314	-0.7570194657299757
25	0.8333333333333334	-0.16105688370020155	1.8386498186370488	-0.7433056804876105	-0.1736301941439012	1.8357038832539585	-0.6811645334773571	-0.18801598136272224	1.6981954442861882	-0.6464421289388154	-0.17810586664238393	1.5734297701851276	-0.6381813135986506	-0.21371593861030905	1.5412670386492124	-0.580783026901894	-0.20854948023588685	1.547027965889137	-0.5648642685850936	-0.17276357060063305	1.5629676432016897	-0.6548402177877342	-0.14303692279227284	1.8406246362734158	-0.8092460746138631	-0.14140568992049576	1.7068860839175999	-0.7977332357689222	-0.2642327533612842	1.4915939827643605	-1.2769033612469218	-0.28759758010931485	1.4768896520084607	-1.1674618338445792	-0.2724150044612816	1.4756983295904305	-1.203691498045998	-0.2582902074104391	1.4725177981018054	-1.3042484183459084	-0.15985905555495394	1.99824296514366	-0.7671875429188997	-0.18801857687220064	2.0667778131743217	-0.7285125863092947	-0.17693060958344015	1.9958125542402758	-0.6823753699479378	-0.18005812947299582	1.9127599687034413	-0.6418777645376734	-0.2018738582719693	1.9470880099356747	-0.6279114068467686	-0.14289462273179032	1.9996934132718114	-0.8489982673829892	-0.14019209941633332	1.9117425647072497	-0.8759427973976548	-0.19171802996766338	1.939007905385969	-0.7645635474194002
26	0.8666666666666667	-0.15812738893540854	1.8414221720981165	-0.742709274046188	-0.1707463698618918	1.8385829206519746	-0.6806597371769504	-0.1878678413359966	1.7101938279005189	-0.6395590377636231	-0.17862319584279368	1.5816469577275656	-0.629648399297722	-0.20982609715914347	1.5475767697403775	-0.5592900416293946	-0.20556020154023863	1.558371328494619	-0.5471365233906319	-0.17322145360816316	1.5700517703063113	-0.6465310768230024	-0.14005460558089022	1.8420963247032158	-0.8085661651536917	-0.14054354907852898	1.7068336847870142	-0.7946633825454194	-0.26961141315283627	1.4935719299245254	-1.2863799226937593	-0.2895317645273705	1.473681958976538	-1.1740800198022734	-0.2724446356035913	1.4756190141074816	-1.2039113805402544	-0.2594203252109216	1.4749078112573775	-1.3084840071489847	-0.1551611361626689	1.9992984554549662	-0.7718721204410299	-0.18502059934226922	2.067964848989037	-0.7281864130192203	-0.16380814612836025	1.99842513393123	-0.6964859761778434	-0.17662134239674604	1.9145343007965852	-0.6501125923202673	-0.20383318587946522	1.9524250110117636	-0.6265098481275069	-0.14449642979921928	2.000780238693674	-0.8440831586230799	-0.14430507768771092	1.9114479844377745	-0.868058017355902	-0.19448491885351687	1.9408916545795623	-0.7542171794025162
27	0.9	-0.15407517867677772	1.838711925332155	-0.7384055559084954	-0.16734869926806908	1.838457527087882	-0.6798057348450071	-0.18235070441826848	1.7127776756084585	-0.6203215588107895	-0.17285864957752342	1.5861905851549358	-0.6105679469385218	-0.20682045881575734	1.5586858976623705	-0.5326772737573685	-0.200559090066212	1.5671360001519763	-0.5225754093769738	-0.16932977308463573	1.5731704941683988	-0.6253338453811956	-0.14148536103548612	1.8379807973958897	-0.8026959885785518	-0.14070162109056336	1.708388546909587	-0.7944858040101442	-0.2694141092553794	1.491563288977109	-1.284394350692754	-0.28867117534558184	1.4725666806139428	-1.1698510088277074	-0.27239490652465326	1.4748485032105616	-1.2026937877660133	-0.2605481252045275	1.4692219373032787	-1.3109867039940504	-0.14966932384477533	2.001684333117089	-0.7735243798401544	-0.18403843140029347	2.06766932480501	-0.7246562664115046	-0.1568146612560369	2.00161922464934	-0.7034941157429225	-0.16324464710949857	1.914549349419948	-0.6639874950660348	-0.19653693950366635	1.9552768581379993	-0.6417845925765442	-0.1442596771874826	2.0018713639483794	-0.8434217090426662	-0.15131347017107694	1.9121124004257894	-0.8495376098816121	-0.19479345891256677	1.9462110154549366	-0.7349557135176741
28	0.9333333333333333	-0.15357468990348516	1.8389210666496603	-0.7350219128372707	-0.16571179302603098	1.8383039298913368	-0.6734981574054199	-0.1818919741377513	1.7195650672016187	-0.6171004981612626	-0.1681149133190196	1.5970057453168973	-0.5863854492591052	-0.2012608687248734	1.5669686822971807	-0.5087224636814984	-0.19493324574574825	1.5750866718696734	-0.4984664865295746	-0.16411926792722564	1.583133595902652	-0.5975020536489614	-0.1424622808584929	1.8406042173163417	-0.7944421002700139	-0.1403404879547976	1.7084254855033074	-0.7910034190306402	-0.2675202490187641	1.4917161525929676	-1.2764951647958662	-0.28739808648474513	1.4722803452933297	-1.1762660249313228	-0.26994238469666587	1.4731159977810069	-1.2055573225122547	-0.2618357304661614	1.4731635568875314	-1.3035289585346592	-0.15021206697990244	2.0000032157282934	-0.7647739932280364	-0.18339235738169607	2.0649220377530537	-0.7216878723033664	-0.1528432832681585	2.00114991886905	-0.699156895855892	-0.16318386592421724	1.9145811467122427	-0.6484482629265379	-0.18695159177938778	1.9547460622796577	-0.6477605230733643	-0.14659533630626767	2.0016697067295866	-0.8299347964314868	-0.15145960793479138	1.9093395463081384	-0.8377532632946482	-0.19822420101670735	1.94770345751184	-0.7273675605634157
